<svg width="256" height="256" viewBox="0 0 256 256" fill="none" xmlns="http://www.w3.org/2000/svg">
<rect width="256" height="256" rx="65" fill="white"/>
<g filter="url(#filter0_d_5_233)">
<path d="M181.899 216.099H151.1V208.399H104.9V216.099H74.0998V77.4997H181.9V208.399H181.899V216.099Z" fill="#346547"/>
<path d="M104.899 200.699H89.4998V185.299H104.899V200.699ZM166.499 200.699H151.099V185.299H166.499V200.699Z" fill="#34995E"/>
<path d="M97.2 208.399H81.7996V193H97.2V208.399ZM174.199 208.399H158.8V193H174.199V208.399ZM158.8 193H97.2V185.299H158.8V193ZM166.499 162.199H89.4998V100.599H166.499V162.199Z" fill="#5AD28C"/>
<path d="M189.599 77.4997H197.299V169.9H181.899V169.899H166.499V177.599H89.4996V169.899H58.6998V77.4997H66.4V46.6999H189.599V77.4997ZM74.1002 162.199H181.899V77.4997H74.1002V162.199Z" fill="white"/>
<path d="M89.499 169.899V162.2H158.799V154.5H174.198V139.1H181.898V92.9004H174.198V85.2002H166.499V77.5H89.5V85.2002H81.7998V92.8994H74.1006V139.1H81.7998V154.5H97.1992V162.199H74.1006V146.8H66.4004V162.199H74.0996V169.899H89.499ZM197.299 69.7998H204.999V154.5H197.299V169.899H189.6V146.8H197.299V77.5H189.6V62.0996H181.899V54.4004H197.299V69.7998ZM174.2 46.7002H189.599V54.3994H166.499V46.7002H89.5V54.3994H66.4004V46.7002H81.7998V39H174.2V46.7002ZM89.5 177.599H166.499V169.899H181.899V162.199H189.599V177.599H174.199V185.299H81.7998V177.599H66.4004V169.899H58.7002V154.5H51V69.7998H58.7002V54.4004H74.0996V62.0996H66.4004V77.5H58.7002V146.8H66.4004V77.5H74.1006V62.1006H89.499V54.4004H166.499V62.1006H181.898V77.5H189.599V146.8H181.898V162.199L174.198 162.2H166.499V169.899H89.5V177.599Z" fill="#BEDEF1"/>
<path d="M158.799 100.6H166.5V115.999H158.799V108.3H97.1997V115.999H89.4995V100.6H97.1997V92.8993H158.799V100.6Z" fill="#86F6BB"/>
<path d="M127.999 162.2H112.6V154.499H127.999V162.2ZM112.599 146.798H97.1993V131.399H112.599V146.798ZM143.4 146.798H127.999V131.399H143.4V146.798Z" fill="#434A5F"/>
</g>
<defs>
<filter id="filter0_d_5_233" x="21.3" y="13.3" width="213.399" height="236.499" filterUnits="userSpaceOnUse" color-interpolation-filters="sRGB">
<feFlood flood-opacity="0" result="BackgroundImageFix"/>
<feColorMatrix in="SourceAlpha" type="matrix" values="0 0 0 0 0 0 0 0 0 0 0 0 0 0 0 0 0 0 127 0" result="hardAlpha"/>
<feOffset dy="4"/>
<feGaussianBlur stdDeviation="14.85"/>
<feComposite in2="hardAlpha" operator="out"/>
<feColorMatrix type="matrix" values="0 0 0 0 0 0 0 0 0 0 0 0 0 0 0 0 0 0 0.25 0"/>
<feBlend mode="normal" in2="BackgroundImageFix" result="effect1_dropShadow_5_233"/>
<feBlend mode="normal" in="SourceGraphic" in2="effect1_dropShadow_5_233" result="shape"/>
</filter>
</defs>
</svg>
